<svg width="152" height="52" viewBox="0 0 152 52" fill="none" xmlns="http://www.w3.org/2000/svg">
<path d="M19.3951 43.2929H16.5195C16.0174 43.2929 15.7664 43.0535 15.7664 42.5745V25.4359C15.7664 25.1851 15.6409 25.0596 15.3898 25.0596H11.4873C11.008 25.0596 10.7684 24.8202 10.7684 24.3412V22.0151C10.7684 21.5361 11.008 21.2967 11.4873 21.2967H24.4273C24.9066 21.2967 25.1462 21.5361 25.1462 22.0151V24.3412C25.1462 24.8202 24.9066 25.0596 24.4273 25.0596H20.5248C20.2509 25.0596 20.114 25.1851 20.114 25.4359V42.5745C20.114 43.0535 19.8744 43.2929 19.3951 43.2929Z" fill="#121212"/>
<path d="M31.0466 43.2929H28.1368C27.6575 43.2929 27.4179 43.0535 27.4179 42.5745V26.5648C27.4179 26.0859 27.6575 25.8464 28.1368 25.8464H31.0466C31.5259 25.8464 31.7655 26.0859 31.7655 26.5648V27.7279H31.9024C32.1535 27.1122 32.5985 26.6446 33.2375 26.3254C33.8765 26.0061 34.5498 25.8464 35.2573 25.8464H36.4897C36.9461 25.8464 37.1743 26.0859 37.1743 26.5648V28.9252C37.1743 29.1989 37.1173 29.3927 37.0032 29.5068C36.9119 29.598 36.7407 29.6322 36.4897 29.6094H34.1276C32.5529 29.6094 31.7655 30.4988 31.7655 32.2777V42.5745C31.7655 43.0535 31.5259 43.2929 31.0466 43.2929Z" fill="#121212"/>
<path d="M45.4804 43.2929H44.6588C42.8559 43.2929 41.4637 42.814 40.4824 41.8562C39.501 40.8983 39.0103 39.5186 39.0103 37.7169V31.4225C39.0103 29.6208 39.501 28.2411 40.4824 27.2832C41.4637 26.3254 42.8559 25.8464 44.6588 25.8464H52.5666C53.0687 25.8464 53.3197 26.0859 53.3197 26.5648V42.5745C53.3197 43.0535 53.0687 43.2929 52.5666 43.2929H49.691C49.2118 43.2929 48.9721 43.0535 48.9721 42.5745V41.4456H48.8352C48.5842 42.0614 48.1391 42.5289 47.5001 42.8482C46.8611 43.1447 46.1879 43.2929 45.4804 43.2929ZM48.9721 36.9301V29.9857C48.9721 29.7348 48.8352 29.6094 48.5613 29.6094H45.3434C44.6131 29.6094 44.0996 29.769 43.803 30.0883C43.5063 30.3848 43.3579 30.8979 43.3579 31.6277V37.5116C43.3579 38.2414 43.5063 38.766 43.803 39.0852C44.0996 39.3817 44.6131 39.53 45.3434 39.53H46.6101C48.1848 39.53 48.9721 38.6633 48.9721 36.9301Z" fill="#121212"/>
<path d="M60.6996 43.2929H57.7898C57.3106 43.2929 57.0709 43.0535 57.0709 42.5745V26.5648C57.0709 26.0859 57.3106 25.8464 57.7898 25.8464H60.6996C61.1789 25.8464 61.4185 26.0859 61.4185 26.5648V27.6937H61.5555C62.0575 26.4622 63.1758 25.8464 64.9103 25.8464H66.0057C69.5888 25.8464 71.3803 27.7051 71.3803 31.4225V42.5745C71.3803 43.0535 71.1293 43.2929 70.6272 43.2929H67.7516C67.2724 43.2929 67.0327 43.0535 67.0327 42.5745V31.6277C67.0327 30.8979 66.873 30.3848 66.5535 30.0883C66.2568 29.769 65.7433 29.6094 65.013 29.6094H63.7806C62.2059 29.6094 61.4185 30.476 61.4185 32.2093V42.5745C61.4185 43.0535 61.1789 43.2929 60.6996 43.2929Z" fill="#121212"/>
<path d="M81.5967 43.2929H75.0925C74.636 43.2929 74.4078 43.0535 74.4078 42.5745V40.3852C74.4078 40.1343 74.4535 39.9633 74.5447 39.872C74.636 39.758 74.8186 39.701 75.0925 39.701H80.8094C81.9277 39.701 82.4868 39.3589 82.4868 38.6747V38.5037C82.4868 37.9563 82.019 37.4318 81.0832 36.9301L77.6942 35.0486C76.5303 34.4556 75.6744 33.8171 75.1267 33.1329C74.579 32.4487 74.3051 31.5707 74.3051 30.4988C74.3051 28.9024 74.7273 27.7279 75.5717 26.9753C76.4161 26.2227 77.7398 25.8464 79.5428 25.8464H85.2597C85.7161 25.8464 85.9443 26.0859 85.9443 26.5648V28.7884C85.9443 29.0393 85.8987 29.2217 85.8074 29.3357C85.7161 29.427 85.5335 29.4726 85.2597 29.4726H80.5013C79.383 29.4726 78.8239 29.7576 78.8239 30.3278V30.4988C78.8239 31.0006 79.3145 31.5137 80.2959 32.0382L83.7534 34.0908C84.9402 34.7293 85.7732 35.3907 86.2524 36.0749C86.7317 36.7362 86.9713 37.6143 86.9713 38.7089C86.9713 41.7649 85.1798 43.2929 81.5967 43.2929Z" fill="#121212"/>
<path d="M100.441 42.1298V42.9166C100.441 43.1675 100.316 43.2929 100.065 43.2929H95.1351C93.6517 43.2929 92.4763 42.8596 91.6091 41.993C90.7647 41.1264 90.3425 39.9405 90.3425 38.4353V30.7041C90.3425 29.1989 90.7647 28.013 91.6091 27.1464C92.4763 26.2797 93.6517 25.8464 95.1351 25.8464H100.065C100.316 25.8464 100.441 25.9719 100.441 26.2227V27.0437C100.441 27.2718 100.316 27.3858 100.065 27.3858H95.272C94.2222 27.3858 93.4234 27.6823 92.8757 28.2753C92.328 28.8682 92.0541 29.7006 92.0541 30.7725V38.3669C92.0541 39.4387 92.328 40.2711 92.8757 40.8641C93.4234 41.4571 94.2222 41.7535 95.272 41.7535H100.065C100.316 41.7535 100.441 41.879 100.441 42.1298Z" fill="#670099"/>
<path d="M105.492 43.2929H104.5C104.271 43.2929 104.157 43.1561 104.157 42.8824V26.2569C104.157 25.9833 104.271 25.8464 104.5 25.8464H105.492C105.743 25.8464 105.869 25.9833 105.869 26.2569V27.6937H106.006C106.257 27.2148 106.702 26.7929 107.341 26.428C107.98 26.0403 108.767 25.8464 109.703 25.8464H111.038C111.289 25.8464 111.415 25.9719 111.415 26.2227V27.0437C111.415 27.2946 111.289 27.4086 111.038 27.3858H109.429C108.311 27.3858 107.432 27.7279 106.793 28.4121C106.177 29.0963 105.869 30.0199 105.869 31.183V42.8824C105.869 43.1561 105.743 43.2929 105.492 43.2929Z" fill="#670099"/>
<path d="M121.53 43.2929H119.339C117.855 43.2929 116.68 42.8596 115.813 41.993C114.968 41.1264 114.546 39.9405 114.546 38.4353V30.7041C114.546 29.1989 114.968 28.013 115.813 27.1464C116.68 26.2797 117.855 25.8464 119.339 25.8464H126.596C126.825 25.8464 126.939 25.9833 126.939 26.2569V42.8824C126.939 43.1561 126.825 43.2929 126.596 43.2929H125.604C125.352 43.2929 125.227 43.1561 125.227 42.8824V41.5141H125.09C124.497 42.7 123.31 43.2929 121.53 43.2929ZM125.227 38.4011V27.6937C125.227 27.4885 125.113 27.3858 124.885 27.3858H119.476C118.426 27.3858 117.627 27.6823 117.08 28.2753C116.532 28.8682 116.258 29.7006 116.258 30.7725V38.3669C116.258 39.4387 116.532 40.2711 117.08 40.8641C117.627 41.4571 118.426 41.7535 119.476 41.7535H121.701C122.796 41.7535 123.652 41.4685 124.268 40.8983C124.907 40.3054 125.227 39.4729 125.227 38.4011Z" fill="#670099"/>
<path d="M135.666 25.8464H138.782C139.056 25.8464 139.192 25.9719 139.192 26.2227V27.0095C139.192 27.2604 139.056 27.3858 138.782 27.3858H135.666C135.461 27.3858 135.358 27.4885 135.358 27.6937V42.8824C135.358 43.1561 135.233 43.2929 134.982 43.2929H133.989C133.738 43.2929 133.612 43.1561 133.612 42.8824V27.6937C133.612 27.4885 133.51 27.3858 133.304 27.3858H131.113C130.862 27.3858 130.737 27.2604 130.737 27.0095V26.2227C130.737 25.9719 130.862 25.8464 131.113 25.8464H133.304C133.51 25.8464 133.612 25.7438 133.612 25.5386V24.0334C133.612 20.8406 135.062 19.2441 137.96 19.2441H138.782C139.056 19.2441 139.192 19.3696 139.192 19.6204V20.4072C139.192 20.6581 139.056 20.7835 138.782 20.7835H138.131C137.104 20.7835 136.385 21.0572 135.975 21.6045C135.564 22.1519 135.358 22.9843 135.358 24.1018V25.5386C135.358 25.7438 135.461 25.8464 135.666 25.8464Z" fill="#670099"/>
<path d="M143.189 27.3858H141.1C140.849 27.3858 140.724 27.2718 140.724 27.0437V26.2227C140.724 25.9719 140.849 25.8464 141.1 25.8464H143.189C143.394 25.8464 143.497 25.7438 143.497 25.5386V22.7676C143.497 22.494 143.622 22.3571 143.873 22.3571H144.866C145.117 22.3571 145.243 22.494 145.243 22.7676V25.5386C145.243 25.7438 145.345 25.8464 145.551 25.8464H149.624C149.875 25.8464 150.001 25.9719 150.001 26.2227V27.0437C150.001 27.2718 149.875 27.3858 149.624 27.3858H145.551C145.345 27.3858 145.243 27.4885 145.243 27.6937V38.4695C145.243 39.5186 145.539 40.3282 146.133 40.8983C146.726 41.4685 147.559 41.7535 148.632 41.7535H149.967C150.218 41.7535 150.343 41.879 150.343 42.1298V42.9166C150.343 43.1675 150.218 43.2929 149.967 43.2929H148.495C146.988 43.2929 145.779 42.871 144.866 42.0272C143.953 41.1834 143.497 40.0203 143.497 38.5379V27.6937C143.497 27.4885 143.394 27.3858 143.189 27.3858Z" fill="#670099"/>
<g clip-path="url(#clip0_1_576)">
<path d="M122.493 17.4813C122.207 16.949 121.751 16.539 121.192 16.3187C117.576 14.893 112.052 14.8624 112.052 14.8624C109.299 7.42793 102.93 6.84051 95.4666 6.91394V4.14207L94.0566 0.170898H91.887L93.2969 4.07476V24.6343H95.4666H113.383C113.383 22.6701 114.963 21.0792 116.914 21.0792C118.865 21.0792 120.445 22.6701 120.445 24.6343H126.315L122.493 17.4813ZM94.2511 23.9062H93.8864V4.02581L92.829 1.07038L94.2511 3.83001V23.9062ZM104.34 16.7532C100.486 15.7864 100.596 12.2313 100.596 12.2313H106.661C104.054 8.54769 95.4666 8.27234 95.4666 8.27234C108.77 7.19541 110.399 14.122 111.511 16.1168C118.081 16.2147 120.755 17.3039 120.755 17.3039C115.832 16.5145 104.34 16.7532 104.34 16.7532Z" fill="#FF6600"/>
<path d="M91.0118 24.6345H40.1744L88.6234 22.811V9.30047L40.1744 7.58105H91.0118V24.6345Z" fill="#FF6600"/>
<path d="M116.92 21.7646C115.346 21.7646 114.069 23.0496 114.069 24.6344H119.77C119.77 23.0496 118.494 21.7646 116.92 21.7646Z" fill="#FF6600"/>
</g>
<defs>
<clipPath id="clip0_1_576">
<rect width="86.1471" height="24.4634" fill="white" transform="translate(40.1744 0.170898)"/>
</clipPath>
</defs>
</svg>
